<svg width="146" height="146" viewBox="0 0 146 146" fill="none" xmlns="http://www.w3.org/2000/svg">
<circle cx="73" cy="73" r="73" fill="#1C1C1C"/>
<g clip-path="url(#clip0_0_1)">
<path d="M87.3361 99.8264H59.593C59.0921 99.8264 58.6116 100.025 58.2574 100.38C57.9032 100.734 57.7042 101.214 57.7042 101.715C57.7042 102.216 57.9032 102.697 58.2574 103.051C58.6116 103.405 59.0921 103.604 59.593 103.604H87.3361C87.8371 103.604 88.3175 103.405 88.6718 103.051C89.026 102.697 89.225 102.216 89.225 101.715C89.225 101.214 89.026 100.734 88.6718 100.38C88.3175 100.025 87.8371 99.8264 87.3361 99.8264Z" fill="white"/>
<path d="M82.9444 106.91H64.0555C63.5546 106.91 63.0741 107.109 62.7199 107.463C62.3657 107.817 62.1667 108.298 62.1667 108.799C62.1667 109.3 62.3657 109.78 62.7199 110.134C63.0741 110.488 63.5546 110.688 64.0555 110.688H82.9444C83.4454 110.688 83.9258 110.488 84.2801 110.134C84.6343 109.78 84.8333 109.3 84.8333 108.799C84.8333 108.298 84.6343 107.817 84.2801 107.463C83.9258 107.109 83.4454 106.91 82.9444 106.91Z" fill="white"/>
<path d="M73.5 36.3125C66.6117 36.3125 60.0056 39.0489 55.1349 43.9196C50.2641 48.7903 47.5278 55.3965 47.5278 62.2847C47.4866 66.0595 48.2935 69.7954 49.8889 73.2167C50.6793 74.6729 51.5626 76.0767 52.5333 77.4194C54.4247 79.9549 56.0098 82.705 57.2556 85.6125C58.1127 88.6901 58.5807 91.863 58.6486 95.0569H72.0833V82.0236L65.3306 74.6333L72.4139 67.55C72.7732 67.2244 73.2439 67.0495 73.7287 67.0614C74.2134 67.0734 74.675 67.2713 75.0178 67.6141C75.3607 67.957 75.5586 68.4185 75.5705 68.9033C75.5824 69.388 75.4075 69.8587 75.0819 70.2181L70.6194 74.6806L75.8611 80.5833V95.1514H88.375C88.4429 91.9574 88.9109 88.7845 89.7681 85.7069C91.0138 82.7994 92.5989 80.0493 94.4903 77.5139C95.4584 76.1249 96.334 74.6736 97.1111 73.1694C98.7065 69.7481 99.5134 66.0123 99.4722 62.2375C99.4597 55.3574 96.7178 48.7634 91.8485 43.9029C86.9791 39.0424 80.3801 36.3125 73.5 36.3125ZM74.5625 59.3333L68.1167 65.7792C67.9449 65.9688 67.7363 66.1215 67.5037 66.2281C67.2711 66.3347 67.0192 66.3929 66.7634 66.3992C66.5076 66.4055 66.2532 66.3597 66.0156 66.2647C65.778 66.1697 65.5622 66.0275 65.3813 65.8465C65.2003 65.6656 65.058 65.4498 64.963 65.2122C64.868 64.9746 64.8223 64.7202 64.8286 64.4644C64.8349 64.2086 64.8931 63.9567 64.9997 63.7241C65.1063 63.4915 65.259 63.2829 65.4486 63.1111L71.8944 56.6653C72.0663 56.4757 72.2748 56.3229 72.5074 56.2163C72.7401 56.1098 72.9919 56.0516 73.2477 56.0453C73.5035 56.039 73.7579 56.0847 73.9955 56.1797C74.2331 56.2747 74.4489 56.417 74.6298 56.5979C74.8108 56.7789 74.9531 56.9947 75.0481 57.2323C75.1431 57.4699 75.1888 57.7243 75.1825 57.9801C75.1762 58.2359 75.118 58.4877 75.0114 58.7204C74.9049 58.953 74.7521 59.1615 74.5625 59.3333Z" fill="white"/>
</g>
<defs>
<clipPath id="clip0_0_1">
<rect width="85" height="85" fill="white" transform="translate(31 31)"/>
</clipPath>
</defs>
</svg>
