<svg width="85" height="85" viewBox="0 0 85 85" fill="none" xmlns="http://www.w3.org/2000/svg">
<g clip-path="url(#clip0_1_17)">
<path d="M56.3361 68.8264H28.593C28.0921 68.8264 27.6116 69.0254 27.2574 69.3796C26.9032 69.7339 26.7042 70.2143 26.7042 70.7153C26.7042 71.2162 26.9032 71.6967 27.2574 72.0509C27.6116 72.4052 28.0921 72.6042 28.593 72.6042H56.3361C56.8371 72.6042 57.3175 72.4052 57.6718 72.0509C58.026 71.6967 58.225 71.2162 58.225 70.7153C58.225 70.2143 58.026 69.7339 57.6718 69.3796C57.3175 69.0254 56.8371 68.8264 56.3361 68.8264Z" fill="white"/>
<path d="M51.9444 75.9097H33.0555C32.5546 75.9097 32.0741 76.1087 31.7199 76.463C31.3657 76.8172 31.1667 77.2977 31.1667 77.7986C31.1667 78.2996 31.3657 78.78 31.7199 79.1343C32.0741 79.4885 32.5546 79.6875 33.0555 79.6875H51.9444C52.4454 79.6875 52.9258 79.4885 53.2801 79.1343C53.6343 78.78 53.8333 78.2996 53.8333 77.7986C53.8333 77.2977 53.6343 76.8172 53.2801 76.463C52.9258 76.1087 52.4454 75.9097 51.9444 75.9097V75.9097Z" fill="white"/>
<path d="M42.5 5.3125C35.6117 5.3125 29.0056 8.04885 24.1349 12.9196C19.2641 17.7903 16.5278 24.3965 16.5278 31.2847C16.4866 35.0595 17.2935 38.7954 18.8889 42.2167C19.6793 43.6729 20.5626 45.0767 21.5333 46.4194C23.4247 48.9549 25.0098 51.705 26.2556 54.6125C27.1127 57.6901 27.5807 60.863 27.6486 64.0569H41.0833V51.0236L34.3306 43.6333L41.4139 36.55C41.7732 36.2244 42.244 36.0495 42.7287 36.0614C43.2134 36.0734 43.675 36.2713 44.0178 36.6141C44.3607 36.957 44.5586 37.4185 44.5705 37.9033C44.5824 38.388 44.4075 38.8587 44.0819 39.2181L39.6194 43.6806L44.8611 49.5833V64.1514H57.375C57.4429 60.9574 57.9109 57.7845 58.7681 54.7069C60.0138 51.7994 61.5989 49.0493 63.4903 46.5139C64.4584 45.1249 65.334 43.6736 66.1111 42.1694C67.7065 38.7481 68.5134 35.0123 68.4722 31.2375C68.4597 24.3574 65.7178 17.7634 60.8485 12.9029C55.9791 8.04236 49.3801 5.31249 42.5 5.3125V5.3125ZM43.5625 28.3333L37.1167 34.7792C36.9449 34.9688 36.7363 35.1215 36.5037 35.2281C36.2711 35.3347 36.0192 35.3929 35.7634 35.3992C35.5076 35.4055 35.2532 35.3597 35.0156 35.2647C34.778 35.1697 34.5622 35.0274 34.3813 34.8465C34.2003 34.6656 34.058 34.4498 33.963 34.2122C33.868 33.9746 33.8223 33.7202 33.8286 33.4644C33.8349 33.2086 33.8931 32.9567 33.9997 32.7241C34.1063 32.4915 34.259 32.2829 34.4486 32.1111L40.8944 25.6653C41.0663 25.4757 41.2748 25.3229 41.5074 25.2163C41.7401 25.1098 41.9919 25.0516 42.2477 25.0453C42.5035 25.039 42.7579 25.0847 42.9955 25.1797C43.2331 25.2747 43.4489 25.417 43.6298 25.5979C43.8108 25.7789 43.9531 25.9947 44.0481 26.2323C44.1431 26.4699 44.1888 26.7243 44.1825 26.9801C44.1762 27.2359 44.118 27.4877 44.0114 27.7204C43.9049 27.953 43.7521 28.1615 43.5625 28.3333Z" fill="white"/>
</g>
<defs>
<clipPath id="clip0_1_17">
<rect width="85" height="85" fill="white"/>
</clipPath>
</defs>
</svg>
